<svg xmlns="http://www.w3.org/2000/svg" xmlns:xlink="http://www.w3.org/1999/xlink" xmlns:serif="http://www.serif.com/" viewBox="0 0 64 80" version="1.1" xml:space="preserve" style="" x="0px" y="0px" fill-rule="evenodd" clip-rule="evenodd" fill="#00b300" stroke-linejoin="round" stroke-miterlimit="2"><circle cx="31.282" cy="25.803" r="9.073"/><path fill="#00b300" d="M10.799,51.305c-0.169,0.374 -0.092,0.814 0.194,1.108c5.14,5.295 12.333,8.587 20.289,8.587c7.956,-0 15.149,-3.292 20.289,-8.587c0.286,-0.294 0.363,-0.734 0.194,-1.108c-0.782,-1.73 -1.874,-3.321 -3.242,-4.689c-2.978,-2.978 -7.017,-4.651 -11.229,-4.651c-3.906,-0 -8.118,-0 -12.024,-0c-4.211,-0 -8.251,1.673 -11.229,4.651c-1.368,1.368 -2.46,2.959 -3.242,4.689Z"/><path fill="#00b300" d="M56.43,19.774c-0.124,-0.241 -0.34,-0.421 -0.599,-0.499c-0.26,-0.078 -0.539,-0.048 -0.776,0.083c-1.1,0.613 -2.367,0.961 -3.715,0.961c-4.227,0 -7.659,-3.432 -7.659,-7.659c-0,-1.348 0.348,-2.615 0.961,-3.715c0.131,-0.237 0.161,-0.516 0.083,-0.776c-0.078,-0.259 -0.258,-0.475 -0.499,-0.599c-3.88,-2.003 -8.281,-3.134 -12.944,-3.134c-15.609,-0 -28.282,12.673 -28.282,28.282c0,15.609 12.673,28.282 28.282,28.282c15.609,-0 28.282,-12.673 28.282,-28.282c0,-4.663 -1.131,-9.064 -3.134,-12.944Zm-1.346,1.792c1.591,3.387 2.48,7.166 2.48,11.152c0,14.505 -11.776,26.282 -26.282,26.282c-14.505,-0 -26.282,-11.777 -26.282,-26.282c-0,-14.506 11.777,-26.282 26.282,-26.282c3.986,-0 7.765,0.889 11.152,2.48c-0.485,1.151 -0.753,2.416 -0.753,3.744c-0,5.331 4.328,9.659 9.659,9.659c1.328,0 2.593,-0.268 3.744,-0.753l-0,-0Z"/><path fill="#00b300" d="M51.34,3c-5.331,0 -9.659,4.328 -9.659,9.66c-0,5.331 4.328,9.659 9.659,9.659c5.332,0 9.66,-4.328 9.66,-9.659c0,-5.332 -4.328,-9.66 -9.66,-9.66Zm-4.661,10.436l2.59,2.59c0.391,0.391 1.024,0.391 1.414,0l5.319,-5.319c0.391,-0.39 0.391,-1.024 0,-1.414c-0.39,-0.39 -1.024,-0.39 -1.414,-0l-4.612,4.612c0,-0 -1.883,-1.883 -1.883,-1.883c-0.391,-0.391 -1.024,-0.391 -1.414,-0c-0.391,0.39 -0.391,1.023 -0,1.414Z"/></svg>